<svg width="30" height="32" viewBox="0 0 30 32" fill="none" xmlns="http://www.w3.org/2000/svg">
<rect x="0.960022" y="1.25" width="28.5" height="29.5" rx="14.25" fill="white"/>
<path d="M8.67969 9.96967C8.53904 10.1103 8.46002 10.3011 8.46002 10.5V12.4395C8.46006 12.6384 8.53911 12.8291 8.67977 12.9698L13.4903 17.7802C13.6309 17.9209 13.71 18.1116 13.71 18.3105V23.25L16.71 20.25V18.3105C16.7101 18.1116 16.7891 17.9209 16.9298 17.7802L21.7403 12.9698C21.8809 12.8291 21.96 12.6384 21.96 12.4395V10.5C21.96 10.3011 21.881 10.1103 21.7404 9.96967C21.5997 9.82902 21.4089 9.75 21.21 9.75H9.21002C9.01111 9.75 8.82034 9.82902 8.67969 9.96967Z" stroke="#9C9C9C" stroke-linecap="round" stroke-linejoin="round"/>
<rect x="0.960022" y="1.25" width="28.5" height="29.5" rx="14.25" stroke="#9C9C9C"/>
</svg>
