<svg width="23" height="24" viewBox="0 0 23 24" fill="none" xmlns="http://www.w3.org/2000/svg">
<path d="M22.1943 12.2262C22.1943 11.4634 22.1325 10.6964 22.0005 9.946H11.416V14.2672H17.4772C17.2257 15.6609 16.4176 16.8938 15.2342 17.6772V20.4811H18.8503C20.9738 18.5266 22.1943 15.6403 22.1943 12.2262Z" fill="#4285F4"/>
<path d="M11.4159 23.1901C14.4425 23.1901 16.9948 22.1964 18.8544 20.4811L15.2383 17.6772C14.2322 18.3617 12.9333 18.7493 11.4201 18.7493C8.49251 18.7493 6.01027 16.7742 5.11964 14.1188H1.38803V17.0092C3.29301 20.7986 7.17305 23.1901 11.4159 23.1901Z" fill="#34A853"/>
<path d="M5.11552 14.1188C4.64547 12.7251 4.64547 11.216 5.11552 9.82229V6.93184H1.38804C-0.203559 10.1027 -0.20357 13.8384 1.38803 17.0092L5.11552 14.1188Z" fill="#FBBC04"/>
<path d="M11.4159 5.18766C13.0158 5.16293 14.562 5.76493 15.7207 6.86998L18.9245 3.66616C16.8958 1.76119 14.2033 0.713863 11.4159 0.74685C7.17305 0.74685 3.29302 3.13839 1.38804 6.93184L5.11552 9.82229C6.00204 7.16275 8.48839 5.18766 11.4159 5.18766Z" fill="#EA4335"/>
</svg>
