<svg width="312" height="272" viewBox="0 0 312 272" fill="none" xmlns="http://www.w3.org/2000/svg">
<g clip-path="url(#clip0_1_1800)">
<mask id="mask0_1_1800" style="mask-type:luminance" maskUnits="userSpaceOnUse" x="-169" y="-132" width="500" height="501">
<path d="M331 -131.17H-169V368.83H331V-131.17Z" fill="white"/>
</mask>
<g mask="url(#mask0_1_1800)">
<path d="M224 44.3297C236.8 54.3297 249.8 64.3297 262.8 74.1297C269.4 66.3297 276 58.4297 282.6 50.6297C287.1 45.3297 291.6 39.9297 296 34.6297C284.7 23.2297 272.5 12.7297 260.2 2.42969C247.9 16.1297 236 30.3297 224 44.3297Z" fill="#DCDCDC"/>
<path d="M287.1 -26.0705C283.4 -22.1705 279.6 -18.2705 275.9 -14.3705C271.4 -9.67051 267 -4.87051 262.7 0.0294876C275.1 10.3295 287.2 20.8295 298.5 32.2295C308.3 20.4295 318 8.6295 327.4 -3.5705C315.7 -12.7705 304.5 -22.6705 294 -33.2705C291.7 -30.8705 289.4 -28.4705 287.1 -26.0705Z" fill="#DCDCDC"/>
<path d="M222.7 45.7295C220.2 48.7295 217.6 51.6295 215.1 54.6295C204.2 67.1295 193.2 79.7295 184.2 93.7295C178.1 103.229 173 113.029 169.5 123.729C172.7 126.229 177 130.029 180.1 132.829C186.9 138.929 193.8 144.529 200.9 148.029C220.9 124.229 241.7 99.2295 261.7 75.5295C248.5 65.7295 235.6 55.8295 222.7 45.7295Z" fill="#ACD47C"/>
<path d="M265.3 78.2295C245.3 102.029 224.9 126.629 204.8 150.329C226.1 160.229 230.2 162.329 240.3 165.829C252.3 170.029 255.4 171.329 280.2 175.529V89.3295C275.2 85.7295 270.2 81.9295 265.3 78.2295Z" fill="#ACD47C"/>
<path d="M36.7998 153.529C36.7998 153.529 70.1998 177.329 73.8998 179.429C81.9998 165.029 89.5998 151.929 98.5998 138.229C86.5998 130.429 74.4998 122.029 62.2998 114.729C61.5998 116.229 44.9998 141.429 36.7998 153.529Z" fill="#DCDCDC"/>
<path d="M220.1 43.0299C212.9 37.4299 202.5 29.2299 195.3 23.5299C191.2 20.3299 190.3 19.5299 186.4 16.1299C178.1 27.0299 168.9 37.3299 160.6 48.2299C154.7 55.9299 147.6 64.7299 143 73.1299C138.5 81.3299 136.1 88.6299 132 97.0299C143.2 104.73 154.7 112.63 166.6 121.13C170.1 110.43 177.6 96.0299 183.8 86.5299C192.7 72.5299 217.5 46.0299 220.1 43.0299Z" fill="#DCDCDC"/>
<path d="M86.0001 72.5293C79.0001 85.9293 72.5001 98.2293 65.5001 111.629C77.7001 119.029 89.8001 126.529 101.8 134.329C106.5 127.229 111.5 120.329 117.1 113.829C121.5 108.729 124.4 103.729 127.4 97.7293C114.7 89.7293 87.0001 73.1293 86.0001 72.5293Z" fill="#DCDCDC"/>
<path d="M157.2 46.3299C165.5 35.5299 173.9 24.7299 182.1 13.8299C171.3 4.32988 160.8 -5.87012 149.9 -15.3701C149.3 -14.8701 148.7 -14.2701 148.1 -13.7701C142.6 -9.47011 135.4 -6.57012 132.7 -0.17012C131.8 2.02988 130.6 4.22988 129.4 6.32988C129.9 6.72988 130.3 7.02988 130.8 7.32988C130.3 6.92988 129.9 6.62988 129.4 6.32988C122.5 18.2299 112 27.9299 104.5 39.5299C100.2 46.1299 96.4998 53.2299 92.7998 60.2299C91.0998 63.5299 89.5998 66.4299 87.7998 69.7299C88.7998 70.3299 116.6 86.7299 129.2 94.7299C133.3 86.3299 136.2 78.4299 140.8 70.2299C145.4 61.7299 151.3 54.0299 157.2 46.3299Z" fill="#DCDCDC"/>
<path d="M58.3001 111.729C45.9001 104.229 33.3001 96.9291 20.7001 89.8291C13.6001 100.029 6.70009 110.329 0.500092 120.929C-1.69991 124.729 -2.4999 126.029 -4.8999 129.729C8.0001 137.029 21.2001 144.329 34.2001 151.729C42.4001 139.729 49.1001 129.229 55.8001 116.329C56.6001 114.829 57.4001 113.329 58.3001 111.729Z" fill="#DCDCDC"/>
<path d="M-9.90009 -48.3701C-17.4001 -35.0701 -25.8001 -22.8701 -33.6001 -9.97012C-27.1001 -5.97012 -20.7001 -1.97012 -14.3001 2.02988C-7.0001 -9.17012 2.99992 -24.2701 10.5999 -35.7701C3.39991 -40.2701 -2.80009 -44.0701 -9.90009 -48.3701Z" fill="#DCDCDC"/>
<path d="M11.3996 -35.3701C3.8996 -23.8701 -6.10039 -8.77011 -13.4004 2.42989C-7.40039 6.22989 -1.5004 10.1299 4.4996 14.0299C8.8996 7.02988 13.0996 0.229889 17.4996 -6.77011C21.2996 -12.7701 25.1996 -18.8701 30.0996 -23.9701C23.8996 -27.6701 17.5996 -31.4701 11.3996 -35.3701Z" fill="#DCDCDC"/>
<path d="M90.5001 -23.4703C102.5 -15.7703 114.2 -7.67032 125.5 1.02968C126.7 -1.07032 127.8 -3.17032 128.8 -5.47032C131.5 -11.8703 138.7 -14.7703 144.2 -19.0703C144.8 -19.5703 145.4 -20.1703 146 -20.6703C133.8 -31.3703 121 -41.0703 106.8 -48.0703C101.7 -39.7703 95.9001 -31.6703 90.5001 -23.4703Z" fill="#ACD47C"/>
<path d="M218.6 -30.3707C207.1 -39.8707 195.8 -49.5707 185 -59.9707C182.2 -55.4707 178.9 -51.0707 175.7 -46.8707C174.1 -44.7707 172.5 -42.6707 170.9 -40.5707C167.5 -36.0707 164.1 -31.5707 160.7 -27.0707C157.8 -23.2707 154.8 -19.4707 151.3 -16.2707C162.2 -6.7707 172.7 3.3293 183.5 12.9293C186.5 8.9293 189.6 4.9293 192.6 0.929298C200.8 -9.9707 209.4 -20.3707 218.6 -30.3707Z" fill="#DCDCDC"/>
<path d="M196.9 2.92989C193.9 6.92989 190.8 10.9299 187.8 14.9299C191.7 18.4299 195.7 21.8299 199.8 25.0299C207 30.7299 214.2 36.3299 221.5 42.0299C233.5 28.0299 245.4 13.8299 257.8 0.129883C246.3 -9.47012 234.5 -18.8701 223 -28.3701C213.7 -18.3701 205 -7.97011 196.9 2.92989Z" fill="#DCDCDC"/>
<path d="M75.7001 2.62988C68.9001 18.2299 60.6001 32.1299 51.1001 46.3299C61.7001 53.1299 72.1001 59.9299 82.7001 66.7299C84.4001 63.4299 85.8001 60.8299 87.5001 57.5299C91.2001 50.5299 94.9001 43.4299 99.2001 36.8299C106.8 25.2299 117.3 15.5299 124.1 3.62988C112.8 -5.07012 101.1 -13.2701 89.1001 -20.8701C84.1001 -13.3701 79.3001 -5.67012 75.7001 2.62988Z" fill="#ACD47C"/>
<path d="M22.5001 86.9297C35.2001 94.0297 47.7001 101.33 60.1001 108.83C67.1001 95.4297 73.7001 82.7297 80.7001 69.3297C70.1001 62.5297 59.6001 55.7297 49.0001 48.9297C40.4001 62.0297 31.5001 74.0297 22.5001 86.9297Z" fill="#DCDCDC"/>
<path d="M36.5002 37.8299C39.8002 39.9299 43.3002 41.5299 46.6002 43.6299C56.1002 29.4299 64.5002 15.4299 71.3002 -0.17012C74.9002 -8.47012 79.7002 -16.1701 84.7002 -23.7701C76.7002 -28.8701 68.7002 -33.7701 60.4002 -38.3701C58.8002 -36.8701 57.1002 -35.4701 55.4002 -34.1701C48.5002 -28.9701 40.9002 -24.7701 34.7002 -18.6701C34.5002 -18.4701 34.3002 -18.1701 34.0002 -17.9701C29.0002 -12.8701 25.2002 -6.77011 21.4002 -0.770111C17.0002 6.22989 14.1002 10.9299 9.7002 17.9299C14.8002 21.8299 20.3002 27.2299 25.8002 31.1299C29.4002 33.6299 32.7002 35.4299 36.5002 37.8299Z" fill="#ACD47C"/>
<path d="M-22.5999 56.5293C-14.1999 43.2293 -5.89988 29.8293 2.50012 16.5293C-3.39988 12.6293 -9.39987 8.8293 -15.3999 5.0293C-23.7999 17.9293 -32.0999 30.7293 -40.4999 43.6293C-34.5999 47.8293 -28.5999 52.2293 -22.5999 56.5293Z" fill="#DCDCDC"/>
<path d="M9.90007 79.5297C12.7001 81.0297 15.4001 82.6297 18.2001 84.2297C27.2001 71.3297 36.2001 59.0297 44.9001 45.9297C41.6001 43.8297 37.4001 41.8297 34.1001 39.7297C30.4001 37.3297 28.3001 36.4297 24.7001 33.8297C19.3001 29.9297 13.5001 24.1297 8.00008 20.4297C-0.399923 33.7297 -9.39993 48.2297 -17.7999 61.5297C-8.79993 67.9297 0.30007 74.1297 9.90007 79.5297Z" fill="#DCDCDC"/>
<path d="M15.9998 86.9295C13.1998 85.3295 10.4998 83.8295 7.6998 82.2295C-1.9002 76.9295 -11.1002 70.7295 -20.1002 64.2295C-21.9002 67.0295 -23.7002 69.9295 -25.5002 72.7295C-28.0002 76.7295 -28.9002 81.1295 -31.2002 85.2295C-35.3002 92.3295 -37.9002 97.5295 -41.7002 105.129C-32.0002 113.629 -20.9002 120.429 -9.7002 126.729C-7.4002 122.929 -6.60019 121.729 -4.40019 117.929C1.99981 107.329 8.8998 97.0295 15.9998 86.9295Z" fill="#DCDCDC"/>
<path d="M1.30008 314.93C7.50008 270.13 54.7001 216.33 60.0001 203.93C52.2001 203.93 28.4001 203.83 20.5001 203.93C9.80008 204.13 1.70007 204.23 -9.09993 204.43C-15.4999 214.43 -21.4999 224.63 -23.4999 236.23C-32.0999 286.33 -26.6999 337.73 -22.9999 388.53H3.00008C-1.19992 378.83 -2.09992 338.73 1.30008 314.93Z" fill="#DCDCDC"/>
<path d="M158.7 340.129C159.1 329.129 159.1 318.129 157.9 307.229C156.1 290.129 154.3 273.129 152.6 256.029C151.2 242.329 150 228.529 150.1 214.829H95.2002C83.7002 215.329 72.3002 215.229 60.8002 215.229C50.5002 231.629 40.0002 248.029 29.6002 264.329C25.7002 270.529 21.7002 276.729 18.9002 283.429C16.5002 289.129 14.0002 296.829 12.6002 302.829C10.0002 313.929 7.30016 328.129 7.40016 339.529C7.50016 355.629 7.50016 366.929 14.8002 388.129L155.3 388.629C156.3 368.729 157.9 360.029 158.7 340.129Z" fill="#DCDCDC"/>
<path d="M222.3 236.429H279.3V219.229L204.8 216.729V236.429H222.3Z" fill="#ACD47C"/>
<path d="M275.4 291.129V301.629H203.9V254.629V216.629L154.4 214.729C154.2 228.529 155.5 244.229 156.9 257.929C158.6 275.029 160.4 292.029 162.2 309.129C163.4 320.129 163.4 331.029 163 342.029H373.5V291.129H306.3H275.4Z" fill="#ACD47C"/>
<path d="M305.601 250.229V281.229V286.729H362.801V250.229H305.601Z" fill="#ACD47C"/>
<path d="M-50.6001 189.83C-53.0001 193.83 -55.3001 197.83 -56.9001 202.13C-57.2001 202.83 -57.4001 203.63 -57.6001 204.33C-41.6001 204.13 -25.5001 203.83 -9.50009 203.63C-8.10009 201.43 -6.7001 199.23 -5.30009 197.03C-2.80009 193.23 -1.30009 190.83 1.29991 187.13C-10.9001 180.53 -23.4001 172.03 -33.7001 162.83C-39.8001 172.23 -44.9001 180.13 -50.6001 189.83Z" fill="#DCDCDC"/>
<path d="M-11.3998 127.63C-18.3998 139.03 -25.5998 150.23 -32.7998 161.33C-22.4998 170.53 -9.99981 179.23 2.2002 185.93C10.7002 173.53 19.1002 162.03 27.5002 149.63C14.6002 142.23 1.6002 134.93 -11.3998 127.63Z" fill="#DCDCDC"/>
<path d="M72.8001 181.63C69.1001 179.53 37.0001 154.93 28.0001 149.93C17.0001 166.13 5.80008 181.13 -4.89992 197.43C-6.29992 199.63 -7.39993 201.33 -8.79993 203.53C1.90007 203.33 52.6001 202.73 60.4001 202.73C63.1001 198.53 69.4001 187.73 72.8001 181.63Z" fill="#DCDCDC"/>
<path d="M280.2 179.029C265.3 177.729 204.2 164.329 177 134.929C174.2 131.929 171.1 129.329 167.9 126.829C166.2 131.929 165.2 136.229 164.4 141.529C161 164.429 154.9 189.329 154.4 212.529L279.6 216.629L280.2 179.029Z" fill="#ACD47C"/>
<path d="M283.8 286.729H304.9V281.229V250.229H283.8V286.729Z" fill="#DCDCDC"/>
<path d="M222.3 238.63H204.8V296.63L269.4 296.43L269.5 286.33L279.3 286.43V238.63H222.3Z" fill="#DCDCDC"/>
<path d="M106.4 201.629C104.4 198.829 101.3 197.029 98.3 195.229C91.3 191.029 84.9 188.229 77.8 184.229C74.4 190.329 62 212.629 62 212.629C73.5 212.729 108 212.629 108 212.629C108.7 208.429 108.4 204.329 106.4 201.629Z" fill="#DCDCDC"/>
<path d="M79.2998 182.33C86.3998 186.33 93.8998 189.83 100.9 193.93C103.9 195.73 106.9 197.53 109 200.33C110.9 202.93 111.1 208.43 110.4 212.63H150.1C150.1 211.93 150.1 211.23 150.1 210.53C150.4 198.33 152.2 186.23 154.4 174.03C138.4 162.23 120.8 150.23 104.2 139.53C95.1998 153.23 87.3998 167.83 79.2998 182.33Z" fill="#DCDCDC"/>
<path d="M165.3 123.93C157.4 118.83 141.4 106.73 130.9 99.6299C128 105.63 124.7 111.43 120.3 116.43C114.7 122.83 109.7 129.73 105 136.93C121.6 147.73 139.2 159.73 155.2 171.43C157.1 160.53 160 149.43 161.6 138.53C162.3 133.23 163.6 128.93 165.3 123.93Z" fill="#DCDCDC"/>
<path d="M307.8 32.1293C303.3 37.4293 298.9 42.8293 294.4 48.1293C287.8 55.9293 281.2 63.8293 274.6 71.6293C279.6 75.3293 284.5 79.1293 289.5 82.8293C291.2 84.1293 292.9 85.4293 294.6 86.6293C300.5 90.9293 306.7 95.3293 313.7 97.4293C319.3 99.1293 325.3 99.2293 331.2 99.3293C341.5 99.5293 351.8 99.7293 362.2 99.8293V14.9293C353.8 9.32929 344.7 2.52928 336.8 -3.67072C327.3 8.52928 317.6 20.3293 307.8 32.1293Z" fill="#ACD47C"/>
<path d="M323.5 192.529C302.5 189.029 297 182.929 284.3 179.529L283.9 216.629H315.8H362.9V192.929C351.4 195.229 335 194.429 323.5 192.529Z" fill="#ACD47C"/>
<path d="M337.6 219.229H283.8V247.729H337.6V219.229Z" fill="#ACD47C"/>
<path d="M325.8 107.63C319.9 107.53 313.9 107.43 308.3 105.73C301.2 103.63 295.1 99.3299 289.2 94.9299C287.5 93.6299 285.8 92.3299 284.1 91.1299V176.43C297.3 178.13 296.3 182.73 318.1 187.83C321.1 188.53 328 190.13 331.1 190.63C330.9 175.93 330.1 122.33 329.9 107.73C328.6 107.73 327.2 107.63 325.8 107.63Z" fill="#ACD47C"/>
<path d="M8.7998 19.0293C13.8998 23.0293 20.7998 29.3293 25.2998 32.5293C30.5998 36.3293 48.2998 46.2293 48.2998 46.2293L84.7998 69.8293L131.3 98.1293C131.3 98.1293 159.9 118.129 166.1 122.929C175.1 129.929 188.3 144.529 204 152.029C235.1 166.929 251.2 172.929 283.7 177.629C297.3 179.629 298.5 187.129 334.1 192.529C347.1 194.529 371.6 189.829 371.6 189.829" stroke="#B6D9F7" stroke-width="2" stroke-miterlimit="10"/>
<path d="M-206.4 -70.5705C-184.5 -68.7705 -154.3 -71.7705 -137.4 -68.0705C-118.4 -63.8705 -86.5999 -42.6705 -78.7999 -37.0705C-59.8999 -23.6705 -18.0999 0.229502 3.50009 15.1295" stroke="#B6D9F7" stroke-width="2" stroke-miterlimit="10"/>
<path d="M5.80007 392.63C4.40007 381.53 3.00007 370.53 1.80007 359.33C1.50007 356.53 1.20006 353.73 1.00006 350.93C0.800063 348.13 0.60006 345.23 0.70006 342.33C0.80006 336.53 1.60006 331.03 2.50006 325.43C3.30006 319.93 4.40006 314.43 5.50006 308.93C6.70006 303.43 8.00007 298.03 9.60007 292.63C10.4001 289.93 11.3001 287.23 12.3001 284.53C13.4001 281.93 14.6001 279.33 15.9001 276.83C18.4001 271.83 21.2001 266.93 24.0001 262.13C29.7001 252.53 35.6001 243.03 42.1001 233.93C48.4001 224.93 54.3001 215.43 60.0001 205.93C65.7001 196.43 71.3 186.83 76.8 177.13C79.5 172.33 82.2001 167.43 85.0001 162.63C87.8001 157.83 90.7001 153.03 93.6001 148.33C96.5001 143.63 99.5001 138.93 102.6 134.23C105.7 129.63 108.8 124.93 112.2 120.53C114 118.33 115.8 116.23 117.6 114.13C119.4 112.03 121.2 109.93 122.7 107.73C125.7 103.13 128.2 98.1297 130.6 93.1297C131.8 90.6297 132.9 88.1297 134 85.5297L135.6 81.6297C136.1 80.3297 136.7 79.0297 137.3 77.8297C139.7 72.7297 142.5 67.9297 145.6 63.2297C148.7 58.5297 152.1 54.1297 155.4 49.7297C158.8 45.3297 162.1 40.8297 165.5 36.4297C168.9 32.0297 172.5 27.7297 176 23.4297L186.6 10.5297L191.9 4.12968L197 -2.47032L207.3 -15.6703C210.8 -20.0703 214.2 -24.3703 217.8 -28.6703C221.4 -32.9703 225.3 -36.9703 229.1 -40.9703C232.9 -44.9703 236.8 -49.0703 240.4 -53.1703C242.1 -55.1703 243.5 -57.4703 244.9 -59.8703C245.6 -61.0703 246.2 -62.2703 246.8 -63.4703C247.4 -64.6703 247.9 -65.8703 248.3 -67.0703L251.3 -66.2703C250.8 -64.7703 250.2 -63.4703 249.6 -62.1703C249 -60.8703 248.3 -59.6703 247.5 -58.4703C246 -56.0703 244.5 -53.6703 242.6 -51.3703C238.8 -47.1703 235 -43.1703 231.1 -39.1703C227.3 -35.1703 223.3 -31.2703 219.8 -27.0703C216.2 -22.8703 212.7 -18.5703 209.2 -14.2703C205.7 -9.97031 202.3 -5.57031 198.8 -1.27031L193.6 5.32968L188.3 11.7297L177.6 24.5297C174 28.8297 170.4 33.0297 167 37.4297C163.6 41.8297 160.2 46.2297 156.8 50.6297C153.4 55.0297 150 59.4297 146.9 64.0297C143.9 68.6297 141.1 73.4297 138.7 78.4297C138.1 79.6297 137.5 80.9297 137 82.2297L135.4 86.1297C134.3 88.7297 133.2 91.2297 132 93.7297C129.6 98.7297 127.2 103.83 124.1 108.53C122.5 110.93 120.7 113.03 118.9 115.23C117.1 117.33 115.3 119.43 113.6 121.63C110.3 126.03 107.3 130.73 104.3 135.33C101.3 140.03 98.4001 144.73 95.5001 149.43C92.6001 154.13 89.8001 158.93 87.0001 163.73C84.2001 168.53 81.7001 173.43 79.0001 178.33C73.6001 188.13 68.1001 197.73 62.5001 207.33C56.8001 216.93 51.1001 226.43 44.8001 235.73C38.5001 244.83 32.7001 254.23 27.2001 263.83C24.5001 268.63 21.8001 273.53 19.4001 278.43C18.2001 280.93 17.1001 283.43 16.0001 285.93C15.0001 288.43 14.2001 291.03 13.4001 293.63C10.4001 304.23 8.00007 315.03 6.30007 325.93C5.50007 331.33 4.90007 336.83 4.80007 342.23C4.80007 344.93 5.10006 347.53 5.40006 350.33C5.70006 353.03 6.10006 355.83 6.50006 358.53C7.30006 364.03 8.20006 369.43 9.20006 374.93C9.70006 377.63 10.2001 380.43 10.8001 383.13C11.3001 385.83 11.9001 388.53 12.5001 391.23L5.80007 392.63Z" fill="#B6D9F7"/>
</g>
</g>
<defs>
<clipPath id="clip0_1_1800">
<rect x="0.5" y="0.265625" width="311" height="271" rx="10" fill="white"/>
</clipPath>
</defs>
</svg>
