<svg width="25" height="24" viewBox="0 0 25 24" fill="none" xmlns="http://www.w3.org/2000/svg">
<path d="M18.5371 16.657L14.2941 20.9C14.1086 21.0857 13.8882 21.2331 13.6457 21.3336C13.4032 21.4342 13.1432 21.4859 12.8806 21.4859C12.6181 21.4859 12.3581 21.4342 12.1156 21.3336C11.873 21.2331 11.6527 21.0857 11.4671 20.9L7.22313 16.657C6.10435 15.5382 5.34247 14.1127 5.03382 12.5609C4.72517 11.009 4.88362 9.40051 5.48913 7.93873C6.09465 6.47694 7.12003 5.22754 8.43561 4.3485C9.7512 3.46947 11.2979 3.00029 12.8801 3.00029C14.4624 3.00029 16.0091 3.46947 17.3246 4.3485C18.6402 5.22754 19.6656 6.47694 20.2711 7.93873C20.8766 9.40051 21.0351 11.009 20.7264 12.5609C20.4178 14.1127 19.6559 15.5382 18.5371 16.657V16.657Z" stroke="#1F2232" stroke-width="2" stroke-linecap="round" stroke-linejoin="round"/>
<path d="M15.0014 13.1213C15.5641 12.5587 15.8801 11.7956 15.8801 11C15.8801 10.2044 15.5641 9.44129 15.0014 8.87868C14.4388 8.31607 13.6758 8 12.8801 8C12.0845 8 11.3214 8.31607 10.7588 8.87868C10.1962 9.44129 9.88013 10.2044 9.88013 11C9.88013 11.7956 10.1962 12.5587 10.7588 13.1213C11.3214 13.6839 12.0845 14 12.8801 14C13.6758 14 14.4388 13.6839 15.0014 13.1213Z" stroke="#1F2232" stroke-width="2" stroke-linecap="round" stroke-linejoin="round"/>
</svg>
