<svg width="19" height="21" viewBox="0 0 19 21" fill="none" xmlns="http://www.w3.org/2000/svg">
<path d="M15.5371 14.657L11.2941 18.9C11.1086 19.0857 10.8882 19.2331 10.6457 19.3336C10.4032 19.4342 10.1432 19.4859 9.88063 19.4859C9.61808 19.4859 9.35811 19.4342 9.11557 19.3336C8.87303 19.2331 8.65269 19.0857 8.46713 18.9L4.22313 14.657C3.10435 13.5382 2.34247 12.1127 2.03382 10.5609C1.72517 9.00902 1.88362 7.40051 2.48913 5.93873C3.09465 4.47694 4.12003 3.22754 5.43561 2.3485C6.7512 1.46947 8.2979 1.00029 9.88013 1.00029C11.4624 1.00029 13.0091 1.46947 14.3246 2.3485C15.6402 3.22754 16.6656 4.47694 17.2711 5.93873C17.8766 7.40051 18.0351 9.00902 17.7264 10.5609C17.4178 12.1127 16.6559 13.5382 15.5371 14.657V14.657Z" stroke="#1F2232" stroke-width="2" stroke-linecap="round" stroke-linejoin="round"/>
</svg>
