<svg width="174" height="78" viewBox="0 0 174 78" fill="none" xmlns="http://www.w3.org/2000/svg">
<path d="M13.4653 74.1172C9.32632 71.9627 5.91069 68.6701 3.58002 64.6457C1.16899 60.4588 -0.0365263 55.7027 0.00365757 50.8654C-0.0767102 46.0687 1.16899 41.3126 3.58002 37.1663C5.91069 33.1013 9.36651 29.8493 13.4653 27.6949C17.6444 25.4185 22.5066 24.2803 27.8913 24.2803C32.9143 24.2803 37.4551 25.3372 41.2725 27.3697C45.0096 29.3615 47.9832 32.4916 49.8719 36.3127L40.5894 41.8411C37.8971 37.2476 32.9946 34.4834 27.7306 34.5647C23.23 34.5647 19.4929 36.0688 16.5192 38.9549C13.5858 41.9224 12.099 45.9061 12.099 50.8247C12.099 55.7434 13.5858 59.6864 16.4389 62.6945C19.3723 65.662 23.1094 67.0847 27.6502 67.0847C30.1818 67.0847 32.7134 66.475 34.9637 65.2555C37.2943 63.9953 39.183 62.1254 40.509 59.8084L49.7111 65.2555C47.7823 69.0766 44.7685 72.2473 41.0314 74.3204C37.214 76.4342 32.7937 77.4911 27.7306 77.4911C22.7478 77.6131 17.8453 76.4749 13.4653 74.1172Z" fill="#00249C"/>
<path d="M83.0236 24.1583L82.9432 15.4592L70.6068 24.1583V59.7271C70.6068 65.5401 72.174 69.9303 75.3083 72.8977C78.4426 75.8652 82.9432 77.4505 88.6895 77.4505C90.8997 77.4912 93.0696 77.166 95.1993 76.5562C97.1282 76.0278 98.8963 75.1335 100.504 73.914L97.0478 65.1336C95.0788 66.597 92.6677 67.3693 90.1763 67.3287C87.926 67.3287 86.0776 66.6376 84.7917 65.2962C83.5058 63.9954 82.9031 61.9629 82.9031 59.4019L82.9834 33.9143H100.021V24.1583H83.0236Z" fill="#00249C"/>
<path d="M66.3875 24.2396H54.051V77.4911H66.3875V24.2396Z" fill="#00249C"/>
<path d="M60.1991 0.5C64.2577 0.5 67.593 3.8333 67.593 7.9796C67.593 12.1259 64.2979 15.4592 60.1991 15.4592C56.1406 15.4592 52.8053 12.1259 52.8053 7.9796C52.8053 3.8333 56.1406 0.5 60.1991 0.5Z" fill="#00249C"/>
<path d="M116.698 24.2396H104.361V77.4911H116.698V24.2396Z" fill="#00249C"/>
<path d="M110.55 0.5C114.608 0.5 117.943 3.8333 117.943 7.9796C117.943 12.1259 114.648 15.4592 110.55 15.4592C106.491 15.4592 103.156 12.1259 103.156 7.9796C103.156 3.8333 106.451 0.5 110.55 0.5Z" fill="#00249C"/>
<path d="M134.017 24.2396H120.877L140.929 50.8247L120.877 77.4099H134.017L154.069 50.8247L134.017 24.2396Z" fill="#00249C"/>
<path d="M174 24.2396H160.86L152.341 35.5403L158.931 44.3614L174 24.2396Z" fill="#00249C"/>
<path d="M158.931 57.41L152.301 66.2311L160.82 77.4505H173.96L158.931 57.41Z" fill="#00249C"/>
</svg>
