<svg width="14" height="17" viewBox="0 0 14 17" fill="none" xmlns="http://www.w3.org/2000/svg">
<path d="M9.35704 6.50627C9.98216 5.88115 10.3334 5.03331 10.3334 4.14925C10.3334 3.2652 9.98216 2.41735 9.35704 1.79223C8.73192 1.16711 7.88408 0.815918 7.00002 0.815918C6.11597 0.815918 5.26812 1.16711 4.643 1.79223C4.01788 2.41735 3.66669 3.2652 3.66669 4.14925C3.66669 5.03331 4.01788 5.88115 4.643 6.50627C5.26812 7.1314 6.11597 7.48258 7.00002 7.48258C7.88408 7.48258 8.73192 7.1314 9.35704 6.50627Z" stroke="#1F2232" stroke-width="1.5" stroke-linecap="round" stroke-linejoin="round"/>
<path d="M2.87523 11.6911C3.96919 10.5972 5.45292 9.98258 7.00002 9.98258C8.54712 9.98258 10.0308 10.5972 11.1248 11.6911C12.2188 12.7851 12.8334 14.2688 12.8334 15.8159H1.16669C1.16669 14.2688 1.78127 12.7851 2.87523 11.6911Z" stroke="#1F2232" stroke-width="1.5" stroke-linecap="round" stroke-linejoin="round"/>
</svg>
