<svg width="20" height="20" viewBox="0 0 20 20" fill="none" xmlns="http://www.w3.org/2000/svg">
<path d="M19.0398 19L13.0398 13M15.0398 8C15.0398 8.91925 14.8587 9.82951 14.507 10.6788C14.1552 11.5281 13.6396 12.2997 12.9895 12.9497C12.3395 13.5998 11.5679 14.1154 10.7186 14.4672C9.8693 14.8189 8.95905 15 8.03979 15C7.12054 15 6.21029 14.8189 5.36101 14.4672C4.51173 14.1154 3.74006 13.5998 3.09005 12.9497C2.44004 12.2997 1.92442 11.5281 1.57264 10.6788C1.22086 9.82951 1.03979 8.91925 1.03979 8C1.03979 6.14348 1.77729 4.36301 3.09005 3.05025C4.4028 1.7375 6.18328 1 8.03979 1C9.89631 1 11.6768 1.7375 12.9895 3.05025C14.3023 4.36301 15.0398 6.14348 15.0398 8Z" stroke="#090A0F" stroke-width="1.5" stroke-linecap="round" stroke-linejoin="round"/>
</svg>
