<svg width="32" height="35" viewBox="0 0 32 35" fill="none" xmlns="http://www.w3.org/2000/svg">
<rect y="0.393555" width="32" height="34" rx="16" fill="white"/>
<path d="M12.684 18.7355C12.886 18.3315 13 17.8755 13 17.3935C13 16.9115 12.886 16.4555 12.684 16.0515M12.684 18.7355C12.3817 19.3399 11.8842 19.8246 11.2721 20.1109C10.66 20.3973 9.96915 20.4686 9.31146 20.3132C8.65378 20.1579 8.06779 19.7851 7.64843 19.2552C7.22907 18.7253 7.00092 18.0693 7.00092 17.3935C7.00092 16.7178 7.22907 16.0618 7.64843 15.5319C8.06779 15.002 8.65378 14.6292 9.31146 14.4738C9.96915 14.3185 10.66 14.3898 11.2721 14.6762C11.8842 14.9625 12.3817 15.4472 12.684 16.0515M12.684 18.7355L19.316 22.0515M12.684 16.0515L19.316 12.7355M19.316 22.0515C18.9601 22.7634 18.9015 23.5875 19.1532 24.3425C19.4049 25.0975 19.9462 25.7216 20.658 26.0775C21.3699 26.4335 22.1939 26.492 22.949 26.2404C23.704 25.9887 24.3281 25.4474 24.684 24.7355C25.0399 24.0237 25.0985 23.1996 24.8468 22.4446C24.5952 21.6896 24.0539 21.0655 23.342 20.7095C22.9895 20.5333 22.6058 20.4282 22.2127 20.4003C21.8197 20.3724 21.4249 20.4221 21.0511 20.5467C20.2961 20.7984 19.6719 21.3397 19.316 22.0515ZM19.316 12.7355C19.4923 13.0879 19.7362 13.4022 20.0338 13.6603C20.3315 13.9185 20.6771 14.1154 21.0509 14.24C21.4247 14.3646 21.8194 14.4143 22.2124 14.3863C22.6055 14.3584 22.9891 14.2533 23.3415 14.077C23.6939 13.9008 24.0082 13.6569 24.2663 13.3592C24.5244 13.0615 24.7214 12.7159 24.846 12.3421C24.9705 11.9683 25.0203 11.5737 24.9923 11.1806C24.9643 10.7876 24.8593 10.4039 24.683 10.0515C24.3271 9.33984 23.703 8.79867 22.9481 8.54709C22.1932 8.29551 21.3692 8.35413 20.6575 8.71005C19.9458 9.06597 19.4046 9.69004 19.1531 10.445C18.9015 11.1999 18.9601 12.0238 19.316 12.7355Z" stroke="#1F2232" stroke-width="2" stroke-linecap="round" stroke-linejoin="round"/>
</svg>
