<svg width="20" height="20" viewBox="0 0 20 20" fill="none" xmlns="http://www.w3.org/2000/svg">
<path d="M9.88013 6C8.22313 6 6.88013 6.895 6.88013 8C6.88013 9.105 8.22313 10 9.88013 10C11.5371 10 12.8801 10.895 12.8801 12C12.8801 13.105 11.5371 14 9.88013 14M9.88013 6V14M9.88013 6C10.9901 6 11.9601 6.402 12.4791 7M9.88013 6V5M9.88013 14V15M9.88013 14C8.77013 14 7.80013 13.598 7.28113 13M18.8801 10C18.8801 11.1819 18.6473 12.3522 18.195 13.4442C17.7428 14.5361 17.0798 15.5282 16.2441 16.364C15.4084 17.1997 14.4162 17.8626 13.3243 18.3149C12.2323 18.7672 11.062 19 9.88013 19C8.69823 19 7.52791 18.7672 6.43598 18.3149C5.34405 17.8626 4.35189 17.1997 3.51617 16.364C2.68044 15.5282 2.0175 14.5361 1.56521 13.4442C1.11292 12.3522 0.880127 11.1819 0.880127 10C0.880127 7.61305 1.82834 5.32387 3.51617 3.63604C5.20399 1.94821 7.49318 1 9.88013 1C12.2671 1 14.5563 1.94821 16.2441 3.63604C17.9319 5.32387 18.8801 7.61305 18.8801 10Z" stroke="#1F2232" stroke-width="1.5" stroke-linecap="round" stroke-linejoin="round"/>
</svg>
